<?xml version="1.0" encoding="UTF-8"?>
<svg xmlns="http://www.w3.org/2000/svg" viewBox="0 0 1200 800" role="img" aria-label="Placeholder surreal floating island">
  <defs>
    <linearGradient id="gSky" x1="0" x2="0" y1="0" y2="1">
      <stop offset="0" stop-color="#eaeaea"/>
      <stop offset="1" stop-color="#cfcfcf"/>
    </linearGradient>
    <linearGradient id="gIsland" x1="0" x2="1" y1="0" y2="1">
      <stop offset="0" stop-color="#bdbdbd"/>
      <stop offset="1" stop-color="#9e9e9e"/>
    </linearGradient>
    <filter id="blur" x="-20%" y="-20%" width="140%" height="140%">
      <feGaussianBlur stdDeviation="20"/>
    </filter>
  </defs>
  <rect width="1200" height="800" fill="url(#gSky)"/>
  <g transform="translate(0,-40)">
    <ellipse cx="600" cy="620" rx="260" ry="40" fill="#b0b0b0" filter="url(#blur)" opacity="0.5"/>
    <g>
      <path d="M360,420 C480,320 720,320 840,420 L780,520 C760,560 440,560 420,520 Z" fill="url(#gIsland)"/>
      <path d="M540,520 L600,700 L660,520" fill="#8a8a8a"/>
    </g>
  </g>
  <g opacity="0.35">
    <path d="M200,120 c120,40 160,60 300,80" stroke="#9a9a9a" stroke-width="6" fill="none"/>
    <path d="M700,160 c140,60 180,80 300,120" stroke="#9a9a9a" stroke-width="6" fill="none"/>
  </g>
  <g aria-hidden="true">
    <circle cx="260" cy="180" r="48" fill="#b5b5b5"/>
    <rect x="970" y="110" width="90" height="40" rx="20" fill="#b5b5b5"/>
  </g>
</svg>

